<?xml version="1.0" encoding="UTF-8"?>
<!DOCTYPE svg PUBLIC "-//W3C//DTD SVG 1.1//EN" "http://www.w3.org/Graphics/SVG/1.1/DTD/svg11.dtd">
<svg xmlns="http://www.w3.org/2000/svg" version="1.1" width="435px" height="234px" style="shape-rendering:geometricPrecision; text-rendering:geometricPrecision; image-rendering:optimizeQuality; fill-rule:evenodd; clip-rule:evenodd" xmlns:xlink="http://www.w3.org/1999/xlink">
<g><path style="opacity:0.62" fill="#75aee9" d="M 352.5,-0.5 C 355.5,-0.5 358.5,-0.5 361.5,-0.5C 361.5,0.166667 361.833,0.5 362.5,0.5C 362.5,1.16667 362.5,1.83333 362.5,2.5C 359.272,1.58627 355.939,1.25293 352.5,1.5C 352.5,1.16667 352.5,0.833333 352.5,0.5C 352.5,0.166667 352.5,-0.166667 352.5,-0.5 Z"/></g>
<g><path style="opacity:0.478" fill="#9ac7f0" d="M 352.5,0.5 C 352.5,0.833333 352.5,1.16667 352.5,1.5C 350.194,1.99255 347.861,2.32588 345.5,2.5C 347.515,1.07619 349.848,0.409526 352.5,0.5 Z"/></g>
<g><path style="opacity:0.992" fill="#337bdd" d="M 352.5,1.5 C 355.939,1.25293 359.272,1.58627 362.5,2.5C 362.483,4.56475 362.15,6.56475 361.5,8.5C 353.494,19.8358 346.494,31.8358 340.5,44.5C 333.207,55.4181 327.207,67.0848 322.5,79.5C 319.46,82.9136 317.46,86.9136 316.5,91.5C 316.34,93.153 315.674,94.4863 314.5,95.5C 311.171,99.1606 309.171,103.494 308.5,108.5C 308.008,110.819 307.008,112.819 305.5,114.5C 302.835,116.835 301.502,119.835 301.5,123.5C 301.34,125.153 300.674,126.486 299.5,127.5C 297.787,128.635 297.12,130.302 297.5,132.5C 295.166,134.176 294.166,136.509 294.5,139.5C 292.166,141.176 291.166,143.509 291.5,146.5C 291.672,147.492 291.338,148.158 290.5,148.5C 288.787,149.635 288.12,151.302 288.5,153.5C 286.787,154.635 286.12,156.302 286.5,158.5C 284.787,159.635 284.12,161.302 284.5,163.5C 282.787,164.635 282.12,166.302 282.5,168.5C 282.672,169.492 282.338,170.158 281.5,170.5C 279.787,171.635 279.12,173.302 279.5,175.5C 277.787,176.635 277.12,178.302 277.5,180.5C 277.095,183.715 276.095,186.715 274.5,189.5C 272.787,190.635 272.12,192.302 272.5,194.5C 270.405,202.785 267.738,210.785 264.5,218.5C 262.896,219.287 262.229,220.62 262.5,222.5C 261.66,224.853 260.326,226.853 258.5,228.5C 247.49,229.751 236.49,231.085 225.5,232.5C 225.5,232.167 225.5,231.833 225.5,231.5C 225.666,224.492 225.5,217.492 225,210.5C 224.884,205.566 224.051,200.9 222.5,196.5C 222.579,191.169 221.579,186.169 219.5,181.5C 218.596,180.791 218.263,179.791 218.5,178.5C 218.472,175.084 217.472,172.084 215.5,169.5C 215.598,167.447 214.931,165.78 213.5,164.5C 212.326,163.486 211.66,162.153 211.5,160.5C 210.805,157.085 209.138,154.418 206.5,152.5C 206.217,151.711 205.717,151.044 205,150.5C 181.137,171.832 155.637,190.832 128.5,207.5C 126.973,207.427 125.973,208.094 125.5,209.5C 124.035,210.737 122.368,211.737 120.5,212.5C 118.847,212.66 117.514,213.326 116.5,214.5C 116.158,215.338 115.492,215.672 114.5,215.5C 112.62,215.229 111.287,215.896 110.5,217.5C 108.491,219.065 106.157,220.065 103.5,220.5C 101.302,220.12 99.6354,220.787 98.5,222.5C 96.7857,223.738 94.7857,224.405 92.5,224.5C 89.5049,224.294 86.8383,224.96 84.5,226.5C 83.4324,227.434 82.099,227.768 80.5,227.5C 66.8295,228.743 53.1628,228.743 39.5,227.5C 36.4954,225.723 33.1621,224.723 29.5,224.5C 27.597,224.204 25.9303,223.537 24.5,222.5C 22.5977,218.943 19.5977,216.943 15.5,216.5C 13.5,213.833 11.1667,211.5 8.5,209.5C 6.40277,204.968 4.06944,200.635 1.5,196.5C 0.548855,195.081 0.215521,193.415 0.5,191.5C 0.578155,184.485 0.911488,177.485 1.5,170.5C 4.06938,165.015 6.40271,159.349 8.5,153.5C 10.4077,152.514 11.4077,150.848 11.5,148.5C 19.1326,139.2 27.466,130.533 36.5,122.5C 38.0269,122.573 39.0269,121.906 39.5,120.5C 41.8477,120.408 43.5144,119.408 44.5,117.5C 49.673,116.578 54.3397,114.578 58.5,111.5C 62.6589,110.336 66.6589,109.003 70.5,107.5C 72.2646,106.539 74.2646,106.205 76.5,106.5C 81.8537,106.569 87.187,106.902 92.5,107.5C 94.1016,109.074 96.1016,109.741 98.5,109.5C 100.822,111.664 103.489,113.331 106.5,114.5C 107.419,117.089 109.086,119.089 111.5,120.5C 112.338,120.842 112.672,121.508 112.5,122.5C 112.427,124.027 113.094,125.027 114.5,125.5C 116.514,130.32 116.848,135.32 115.5,140.5C 113.733,142.792 112.733,145.458 112.5,148.5C 112.34,150.153 111.674,151.486 110.5,152.5C 109.075,154.031 108.409,153.698 108.5,151.5C 108.662,149.473 108.495,147.473 108,145.5C 107.617,144.944 107.117,144.611 106.5,144.5C 106.946,141.99 106.28,139.99 104.5,138.5C 102.533,135.523 100.533,132.523 98.5,129.5C 98.0269,128.094 97.0269,127.427 95.5,127.5C 94.713,125.896 93.3797,125.229 91.5,125.5C 89.1617,123.96 86.4951,123.294 83.5,123.5C 80.3601,122.359 77.0267,122.192 73.5,123C 70.1489,123.057 67.1489,123.891 64.5,125.5C 58.647,125.601 53.647,127.601 49.5,131.5C 47.9731,131.427 46.9731,132.094 46.5,133.5C 44.9731,133.427 43.9731,134.094 43.5,135.5C 43.5,136.167 43.1667,136.5 42.5,136.5C 40.5956,136.738 39.2623,137.738 38.5,139.5C 37.1667,141.5 35.5,143.167 33.5,144.5C 31.4131,145.585 30.0798,147.251 29.5,149.5C 29.5,150.167 29.1667,150.5 28.5,150.5C 26.1782,151.802 24.8449,153.802 24.5,156.5C 22.8958,157.287 22.2291,158.62 22.5,160.5C 20.7868,161.635 20.1201,163.302 20.5,165.5C 20.6716,166.492 20.3382,167.158 19.5,167.5C 18.0337,168.347 17.2004,169.68 17,171.5C 16.1881,175.689 16.3547,179.689 17.5,183.5C 18.4345,184.568 18.7678,185.901 18.5,187.5C 18.179,190.577 19.179,192.91 21.5,194.5C 21.1568,196.483 21.8235,197.817 23.5,198.5C 24.5,198.833 25.1667,199.5 25.5,200.5C 26.5387,202.531 28.2054,203.864 30.5,204.5C 30.9731,205.906 31.9731,206.573 33.5,206.5C 38.5515,209.912 44.2182,212.079 50.5,213C 58.0728,213.903 65.4061,213.403 72.5,211.5C 76.913,211.147 81.2464,210.314 85.5,209C 88.2813,208.478 90.6146,207.311 92.5,205.5C 94.698,205.88 96.3646,205.213 97.5,203.5C 102.413,203.044 106.413,201.044 109.5,197.5C 111.483,197.843 112.817,197.176 113.5,195.5C 117.505,194.502 120.839,192.502 123.5,189.5C 125.027,189.573 126.027,188.906 126.5,187.5C 126.842,186.662 127.508,186.328 128.5,186.5C 130.027,186.573 131.027,185.906 131.5,184.5C 134.198,184.155 136.198,182.822 137.5,180.5C 139.027,180.573 140.027,179.906 140.5,178.5C 142.404,178.262 143.738,177.262 144.5,175.5C 146.027,175.573 147.027,174.906 147.5,173.5C 149.404,173.262 150.738,172.262 151.5,170.5C 153.404,170.262 154.738,169.262 155.5,167.5C 157.749,166.92 159.415,165.587 160.5,163.5C 162.404,163.262 163.738,162.262 164.5,160.5C 166.749,159.92 168.415,158.587 169.5,156.5C 172.427,155.243 174.761,153.243 176.5,150.5C 180.1,148.57 183.1,145.903 185.5,142.5C 188.225,141.287 190.559,139.454 192.5,137C 191.906,136.536 191.239,136.369 190.5,136.5C 188.847,136.34 187.514,135.674 186.5,134.5C 186.586,133.504 186.252,132.671 185.5,132C 182.522,131.304 179.522,130.804 176.5,130.5C 170.761,130.07 165.095,129.404 159.5,128.5C 155.154,128.334 150.821,128.501 146.5,129C 143.809,129.156 141.476,129.989 139.5,131.5C 137.102,131.259 135.102,131.926 133.5,133.5C 133.158,134.338 132.492,134.672 131.5,134.5C 130.167,134.5 128.833,134.5 127.5,134.5C 127.5,132.833 127.5,131.167 127.5,129.5C 128.906,129.027 129.573,128.027 129.5,126.5C 132.443,125.541 134.776,123.875 136.5,121.5C 138.898,121.741 140.898,121.074 142.5,119.5C 144.698,119.125 146.698,118.458 148.5,117.5C 159.841,117.634 171.174,117.967 182.5,118.5C 185.215,120.072 188.215,121.072 191.5,121.5C 193.849,123.341 196.515,124.674 199.5,125.5C 200.314,127.273 201.648,127.773 203.5,127C 205.373,125.296 207.04,123.463 208.5,121.5C 213.794,117.873 218.461,113.54 222.5,108.5C 226.771,105.899 230.437,102.566 233.5,98.5C 236.764,96.9059 239.431,94.5725 241.5,91.5C 244.427,90.2427 246.761,88.2427 248.5,85.5C 251.764,83.9059 254.431,81.5725 256.5,78.5C 259.764,76.9059 262.431,74.5725 264.5,71.5C 291.8,48.8683 318.8,25.8683 345.5,2.5C 347.861,2.32588 350.194,1.99255 352.5,1.5 Z M 304.5,58.5 C 305.167,58.5 305.833,58.5 306.5,58.5C 306.5,59.1667 306.5,59.8333 306.5,60.5C 305.11,61.8993 304.11,63.5659 303.5,65.5C 302.326,66.5137 301.66,67.847 301.5,69.5C 299.412,71.3356 298.079,73.6689 297.5,76.5C 295.412,78.3356 294.079,80.6689 293.5,83.5C 291.75,84.6594 290.75,86.326 290.5,88.5C 288.75,89.6594 287.75,91.326 287.5,93.5C 285.412,95.3356 284.079,97.6689 283.5,100.5C 282.094,100.973 281.427,101.973 281.5,103.5C 280.326,104.514 279.66,105.847 279.5,107.5C 277.75,108.659 276.75,110.326 276.5,112.5C 274.412,114.336 273.079,116.669 272.5,119.5C 268.17,124.815 264.837,130.815 262.5,137.5C 259.384,142.07 257.05,147.07 255.5,152.5C 253.049,155.74 251.382,159.407 250.5,163.5C 248.707,165.426 247.707,167.759 247.5,170.5C 245.935,172.509 244.935,174.843 244.5,177.5C 243.463,178.93 242.796,180.597 242.5,182.5C 241.833,182.167 241.167,181.833 240.5,181.5C 240.267,178.458 239.267,175.792 237.5,173.5C 235.674,168.516 233.341,163.849 230.5,159.5C 230.573,157.973 229.906,156.973 228.5,156.5C 228.573,154.973 227.906,153.973 226.5,153.5C 226.672,152.508 226.338,151.842 225.5,151.5C 225.573,149.973 224.906,148.973 223.5,148.5C 223.167,147.5 222.5,146.833 221.5,146.5C 220.92,144.251 219.587,142.585 217.5,141.5C 217.557,140.391 217.89,139.391 218.5,138.5C 223.193,134.139 227.859,129.805 232.5,125.5C 234.404,125.262 235.738,124.262 236.5,122.5C 240.167,119.5 243.5,116.167 246.5,112.5C 248.027,112.573 249.027,111.906 249.5,110.5C 253.5,107.167 257.167,103.5 260.5,99.5C 262.749,98.9202 264.415,97.5869 265.5,95.5C 269.167,92.5 272.5,89.1667 275.5,85.5C 278.427,84.2427 280.761,82.2427 282.5,79.5C 285.167,77.5 287.5,75.1667 289.5,72.5C 293.1,70.5698 296.1,67.9031 298.5,64.5C 300.833,62.8333 302.833,60.8333 304.5,58.5 Z"/></g>
<g><path style="opacity:0.447" fill="#9dc7ee" d="M 362.5,0.5 C 363.152,1.4486 363.486,2.61527 363.5,4C 363.693,6.00811 363.026,7.50811 361.5,8.5C 362.15,6.56475 362.483,4.56475 362.5,2.5C 362.5,1.83333 362.5,1.16667 362.5,0.5 Z"/></g>
<g><path style="opacity:0.192" fill="#a1c8ef" d="M 361.5,8.5 C 355.001,20.836 348.001,32.836 340.5,44.5C 346.494,31.8358 353.494,19.8358 361.5,8.5 Z"/></g>
<g><path style="opacity:0.345" fill="#9fc8ef" d="M 345.5,2.5 C 318.8,25.8683 291.8,48.8683 264.5,71.5C 285.64,52.5319 306.973,33.6986 328.5,15C 334.063,10.5911 339.729,6.42441 345.5,2.5 Z"/></g>
<g><path style="opacity:0.004" fill="#bddaf5" d="M 308.5,57.5 C 308.167,56.1667 307.833,56.1667 307.5,57.5C 306.833,57.5 306.5,57.8333 306.5,58.5C 305.833,58.5 305.167,58.5 304.5,58.5C 306.479,55.8544 308.812,53.5211 311.5,51.5C 311.833,51.8333 312.167,52.1667 312.5,52.5C 311.113,54.21 309.779,55.8767 308.5,57.5 Z"/></g>
<g><path style="opacity:0.047" fill="#c0dcf5" d="M 307.5,57.5 C 307.833,57.5 308.167,57.5 308.5,57.5C 308.573,59.0269 307.906,60.0269 306.5,60.5C 306.5,59.8333 306.5,59.1667 306.5,58.5C 307.167,58.5 307.5,58.1667 307.5,57.5 Z"/></g>
<g><path style="opacity:0.2" fill="#afd0ef" d="M 306.5,60.5 C 306.727,62.9328 305.727,64.5994 303.5,65.5C 304.11,63.5659 305.11,61.8993 306.5,60.5 Z"/></g>
<g><path style="opacity:0.224" fill="#98c3ed" d="M 340.5,44.5 C 334.752,56.331 328.752,67.9976 322.5,79.5C 327.207,67.0848 333.207,55.4181 340.5,44.5 Z"/></g>
<g><path style="opacity:0.122" fill="#b2d4f3" d="M 303.5,65.5 C 303.771,67.3797 303.104,68.713 301.5,69.5C 301.66,67.847 302.326,66.5137 303.5,65.5 Z"/></g>
<g><path style="opacity:0.004" fill="#c7dff6" d="M 298.5,64.5 C 296.1,67.9031 293.1,70.5698 289.5,72.5C 291.9,69.0969 294.9,66.4302 298.5,64.5 Z"/></g>
<g><path style="opacity:0.38" fill="#9ac5f0" d="M 264.5,71.5 C 262.431,74.5725 259.764,76.9059 256.5,78.5C 258.569,75.4275 261.236,73.0941 264.5,71.5 Z"/></g>
<g><path style="opacity:0.945" fill="#8cb6e8" d="M 301.5,69.5 C 300.892,72.4062 299.559,74.7396 297.5,76.5C 298.079,73.6689 299.412,71.3356 301.5,69.5 Z"/></g>
<g><path style="opacity:0.62" fill="#91bfee" d="M 256.5,78.5 C 254.431,81.5725 251.764,83.9059 248.5,85.5C 250.569,82.4275 253.236,80.0941 256.5,78.5 Z"/></g>
<g><path style="opacity:0.004" fill="#c5def6" d="M 282.5,79.5 C 280.761,82.2427 278.427,84.2427 275.5,85.5C 277.239,82.7573 279.573,80.7573 282.5,79.5 Z"/></g>
<g><path style="opacity:0.965" fill="#8bb7ec" d="M 297.5,76.5 C 296.892,79.4062 295.559,81.7396 293.5,83.5C 294.079,80.6689 295.412,78.3356 297.5,76.5 Z"/></g>
<g><path style="opacity:0.075" fill="#afd2f3" d="M 293.5,83.5 C 293.25,85.674 292.25,87.3406 290.5,88.5C 290.75,86.326 291.75,84.6594 293.5,83.5 Z"/></g>
<g><path style="opacity:0.176" fill="#a3cbf1" d="M 322.5,79.5 C 321.008,83.8178 319.008,87.8178 316.5,91.5C 317.46,86.9136 319.46,82.9136 322.5,79.5 Z"/></g>
<g><path style="opacity:0.541" fill="#95c2ef" d="M 248.5,85.5 C 246.761,88.2427 244.427,90.2427 241.5,91.5C 243.239,88.7573 245.573,86.7573 248.5,85.5 Z"/></g>
<g><path style="opacity:0.925" fill="#91bdee" d="M 290.5,88.5 C 290.408,90.8477 289.408,92.5144 287.5,93.5C 287.75,91.326 288.75,89.6594 290.5,88.5 Z"/></g>
<g><path style="opacity:0.506" fill="#91bbe7" d="M 241.5,91.5 C 239.431,94.5725 236.764,96.9059 233.5,98.5C 235.569,95.4275 238.236,93.0941 241.5,91.5 Z"/></g>
<g><path style="opacity:0.898" fill="#8db9eb" d="M 287.5,93.5 C 287.264,96.6207 285.931,98.954 283.5,100.5C 284.079,97.6689 285.412,95.3356 287.5,93.5 Z"/></g>
<g><path style="opacity:0.004" fill="#c9e1f7" d="M 265.5,95.5 C 264.415,97.5869 262.749,98.9202 260.5,99.5C 261.585,97.4131 263.251,96.0798 265.5,95.5 Z"/></g>
<g><path style="opacity:0.341" fill="#93c1ef" d="M 314.5,95.5 C 312.736,100.022 310.736,104.355 308.5,108.5C 309.171,103.494 311.171,99.1606 314.5,95.5 Z"/></g>
<g><path style="opacity:0.055" fill="#bedbf5" d="M 283.5,100.5 C 283.573,102.027 282.906,103.027 281.5,103.5C 281.427,101.973 282.094,100.973 283.5,100.5 Z"/></g>
<g><path style="opacity:0.016" fill="#cbe1f6" d="M 76.5,106.5 C 81.9115,105.143 87.2448,105.476 92.5,107.5C 87.187,106.902 81.8537,106.569 76.5,106.5 Z"/></g>
<g><path style="opacity:0.914" fill="#7eb2eb" d="M 233.5,98.5 C 230.437,102.566 226.771,105.899 222.5,108.5C 225.563,104.434 229.229,101.101 233.5,98.5 Z"/></g>
<g><path style="opacity:0.216" fill="#a3cbf1" d="M 281.5,103.5 C 281.771,105.38 281.104,106.713 279.5,107.5C 279.66,105.847 280.326,104.514 281.5,103.5 Z"/></g>
<g><path style="opacity:0.29" fill="#a2caf1" d="M 92.5,107.5 C 94.7857,107.595 96.7857,108.262 98.5,109.5C 96.1016,109.741 94.1016,109.074 92.5,107.5 Z"/></g>
<g><path style="opacity:0.702" fill="#98c3ed" d="M 70.5,107.5 C 66.6589,109.003 62.6589,110.336 58.5,111.5C 57.8333,111.5 57.1667,111.5 56.5,111.5C 60.7938,109.184 65.4605,107.85 70.5,107.5 Z"/></g>
<g><path style="opacity:0.114" fill="#aed0f2" d="M 98.5,109.5 C 101.849,110.169 104.516,111.836 106.5,114.5C 103.489,113.331 100.822,111.664 98.5,109.5 Z"/></g>
<g><path style="opacity:0.004" fill="#c8dff7" d="M 249.5,110.5 C 249.027,111.906 248.027,112.573 246.5,112.5C 246.973,111.094 247.973,110.427 249.5,110.5 Z"/></g>
<g><path style="opacity:0.957" fill="#8cb8ec" d="M 279.5,107.5 C 279.408,109.848 278.408,111.514 276.5,112.5C 276.75,110.326 277.75,108.659 279.5,107.5 Z"/></g>
<g><path style="opacity:0.945" fill="#6aa5e8" d="M 56.5,111.5 C 57.1667,111.5 57.8333,111.5 58.5,111.5C 54.3397,114.578 49.673,116.578 44.5,117.5C 48.1822,114.992 52.1822,112.992 56.5,111.5 Z"/></g>
<g><path style="opacity:0.725" fill="#8fbeed" d="M 222.5,108.5 C 218.461,113.54 213.794,117.873 208.5,121.5C 212.513,116.488 217.179,112.155 222.5,108.5 Z"/></g>
<g><path style="opacity:0.914" fill="#84b2eb" d="M 182.5,118.5 C 171.174,117.967 159.841,117.634 148.5,117.5C 159.913,114.727 171.246,115.06 182.5,118.5 Z"/></g>
<g><path style="opacity:0.937" fill="#8ab6ed" d="M 276.5,112.5 C 276.264,115.621 274.931,117.954 272.5,119.5C 273.079,116.669 274.412,114.336 276.5,112.5 Z"/></g>
<g><path style="opacity:0.216" fill="#9ec8f0" d="M 305.5,114.5 C 304.403,117.686 303.07,120.686 301.5,123.5C 301.502,119.835 302.835,116.835 305.5,114.5 Z"/></g>
<g><path style="opacity:0.482" fill="#9dc5f0" d="M 106.5,114.5 C 108.914,115.911 110.581,117.911 111.5,120.5C 109.086,119.089 107.419,117.089 106.5,114.5 Z"/></g>
<g><path style="opacity:0.431" fill="#aacff2" d="M 148.5,117.5 C 146.698,118.458 144.698,119.125 142.5,119.5C 141.833,119.5 141.167,119.5 140.5,119.5C 142.838,117.96 145.505,117.294 148.5,117.5 Z"/></g>
<g><path style="opacity:0.008" fill="#b2d3f3" d="M 182.5,118.5 C 185.916,118.528 188.916,119.528 191.5,121.5C 188.215,121.072 185.215,120.072 182.5,118.5 Z"/></g>
<g><path style="opacity:0.294" fill="#98c2ef" d="M 44.5,117.5 C 43.5144,119.408 41.8477,120.408 39.5,120.5C 40.6594,118.75 42.326,117.75 44.5,117.5 Z"/></g>
<g><path style="opacity:0.945" fill="#6fa9e9" d="M 140.5,119.5 C 141.167,119.5 141.833,119.5 142.5,119.5C 140.898,121.074 138.898,121.741 136.5,121.5C 137.514,120.326 138.847,119.66 140.5,119.5 Z"/></g>
<g><path style="opacity:0.341" fill="#a9cff2" d="M 39.5,120.5 C 39.0269,121.906 38.0269,122.573 36.5,122.5C 36.9731,121.094 37.9731,120.427 39.5,120.5 Z"/></g>
<g><path style="opacity:0.212" fill="#a2c4e4" d="M 83.5,123.5 C 86.4951,123.294 89.1617,123.96 91.5,125.5C 88.5718,125.435 85.9052,124.768 83.5,123.5 Z"/></g>
<g><path style="opacity:0.561" fill="#7dafe8" d="M 136.5,121.5 C 134.776,123.875 132.443,125.541 129.5,126.5C 130.948,123.736 133.281,122.069 136.5,121.5 Z"/></g>
<g><path style="opacity:0.078" fill="#b0cfed" d="M 191.5,121.5 C 194.754,121.794 197.421,123.127 199.5,125.5C 196.515,124.674 193.849,123.341 191.5,121.5 Z"/></g>
<g><path style="opacity:0.004" fill="#bed5ec" d="M 236.5,122.5 C 235.738,124.262 234.404,125.262 232.5,125.5C 233.262,123.738 234.596,122.738 236.5,122.5 Z"/></g>
<g><path style="opacity:0.004" fill="#a7c9e9" d="M 83.5,123.5 C 77.1041,123.622 70.7708,124.289 64.5,125.5C 67.1489,123.891 70.1489,123.057 73.5,123C 77.0267,122.192 80.3601,122.359 83.5,123.5 Z"/></g>
<g><path style="opacity:0.071" fill="#adccea" d="M 112.5,122.5 C 113.906,122.973 114.573,123.973 114.5,125.5C 113.094,125.027 112.427,124.027 112.5,122.5 Z"/></g>
<g><path style="opacity:0.341" fill="#a6caed" d="M 208.5,121.5 C 207.04,123.463 205.373,125.296 203.5,127C 201.648,127.773 200.314,127.273 199.5,125.5C 200.496,125.414 201.329,125.748 202,126.5C 203.777,124.21 205.944,122.543 208.5,121.5 Z"/></g>
<g><path style="opacity:0.129" fill="#add1f2" d="M 91.5,125.5 C 93.3797,125.229 94.713,125.896 95.5,127.5C 93.847,127.34 92.5137,126.674 91.5,125.5 Z"/></g>
<g><path style="opacity:0.318" fill="#9bc5ee" d="M 64.5,125.5 C 59.4648,127.176 54.4648,129.176 49.5,131.5C 53.647,127.601 58.647,125.601 64.5,125.5 Z"/></g>
<g><path style="opacity:0.447" fill="#91bfee" d="M 95.5,127.5 C 97.0269,127.427 98.0269,128.094 98.5,129.5C 96.9731,129.573 95.9731,128.906 95.5,127.5 Z"/></g>
<g><path style="opacity:0.51" fill="#7fb4eb" d="M 129.5,126.5 C 129.573,128.027 128.906,129.027 127.5,129.5C 127.427,127.973 128.094,126.973 129.5,126.5 Z"/></g>
<g><path style="opacity:0.071" fill="#b7d5f3" d="M 159.5,128.5 C 152.949,129.376 146.283,130.376 139.5,131.5C 141.476,129.989 143.809,129.156 146.5,129C 150.821,128.501 155.154,128.334 159.5,128.5 Z"/></g>
<g><path style="opacity:0.635" fill="#89b7e7" d="M 299.5,127.5 C 299.598,129.553 298.931,131.22 297.5,132.5C 297.12,130.302 297.787,128.635 299.5,127.5 Z"/></g>
<g><path style="opacity:0.612" fill="#91beed" d="M 36.5,122.5 C 27.466,130.533 19.1326,139.2 11.5,148.5C 17.7864,137.88 26.1198,129.213 36.5,122.5 Z"/></g>
<g><path style="opacity:0.98" fill="#6ca3e7" d="M 176.5,130.5 C 179.522,130.804 182.522,131.304 185.5,132C 186.252,132.671 186.586,133.504 186.5,134.5C 183.011,133.342 179.678,132.009 176.5,130.5 Z"/></g>
<g><path style="opacity:0.008" fill="#bcd9f4" d="M 49.5,131.5 C 49.0269,132.906 48.0269,133.573 46.5,133.5C 46.9731,132.094 47.9731,131.427 49.5,131.5 Z"/></g>
<g><path style="opacity:0.063" fill="#b1d3f3" d="M 139.5,131.5 C 137.786,132.738 135.786,133.405 133.5,133.5C 135.102,131.926 137.102,131.259 139.5,131.5 Z"/></g>
<g><path style="opacity:0.914" fill="#8fbaec" d="M 272.5,119.5 C 269.894,125.133 267.227,130.8 264.5,136.5C 264.043,137.298 263.376,137.631 262.5,137.5C 264.837,130.815 268.17,124.815 272.5,119.5 Z"/></g>
<g><path style="opacity:0.012" fill="#b9d7f4" d="M 46.5,133.5 C 46.0269,134.906 45.0269,135.573 43.5,135.5C 43.9731,134.094 44.9731,133.427 46.5,133.5 Z"/></g>
<g><path style="opacity:0.937" fill="#86b3ec" d="M 127.5,129.5 C 127.5,131.167 127.5,132.833 127.5,134.5C 128.833,134.5 130.167,134.5 131.5,134.5C 129.898,136.074 127.898,136.741 125.5,136.5C 125.41,133.848 126.076,131.515 127.5,129.5 Z"/></g>
<g><path style="opacity:0.376" fill="#94c1ef" d="M 297.5,132.5 C 296.736,135.018 295.736,137.351 294.5,139.5C 294.166,136.509 295.166,134.176 297.5,132.5 Z"/></g>
<g><path style="opacity:0.008" fill="#c4def6" d="M 42.5,136.5 C 41.7377,138.262 40.4044,139.262 38.5,139.5C 39.2623,137.738 40.5956,136.738 42.5,136.5 Z"/></g>
<g><path style="opacity:0.012" fill="#b7d6f4" d="M 218.5,138.5 C 217.89,139.391 217.557,140.391 217.5,141.5C 216.115,140.053 216.448,139.053 218.5,138.5 Z"/></g>
<g><path style="opacity:0.8" fill="#83b6ec" d="M 104.5,138.5 C 106.28,139.99 106.946,141.99 106.5,144.5C 105.542,142.698 104.875,140.698 104.5,138.5 Z"/></g>
<g><path style="opacity:0.898" fill="#78aeea" d="M 190.5,136.5 C 191.239,136.369 191.906,136.536 192.5,137C 190.559,139.454 188.225,141.287 185.5,142.5C 187.167,140.5 188.833,138.5 190.5,136.5 Z"/></g>
<g><path style="opacity:0.349" fill="#96c2ef" d="M 294.5,139.5 C 293.736,142.018 292.736,144.351 291.5,146.5C 291.166,143.509 292.166,141.176 294.5,139.5 Z"/></g>
<g><path style="opacity:0.937" fill="#7db1eb" d="M 217.5,141.5 C 219.587,142.585 220.92,144.251 221.5,146.5C 219.413,145.415 218.08,143.749 217.5,141.5 Z"/></g>
<g><path style="opacity:0.925" fill="#87b6ec" d="M 262.5,137.5 C 261.494,143.175 259.161,148.175 255.5,152.5C 257.05,147.07 259.384,142.07 262.5,137.5 Z"/></g>
<g><path style="opacity:0.631" fill="#89b8ec" d="M 185.5,142.5 C 183.1,145.903 180.1,148.57 176.5,150.5C 178.9,147.097 181.9,144.43 185.5,142.5 Z"/></g>
<g><path style="opacity:0.937" fill="#75abea" d="M 106.5,144.5 C 107.117,144.611 107.617,144.944 108,145.5C 108.495,147.473 108.662,149.473 108.5,151.5C 108.167,151.5 107.833,151.5 107.5,151.5C 107.007,149.194 106.674,146.861 106.5,144.5 Z"/></g>
<g><path style="opacity:0.176" fill="#a4cbf1" d="M 115.5,140.5 C 115.267,143.542 114.267,146.208 112.5,148.5C 112.733,145.458 113.733,142.792 115.5,140.5 Z"/></g>
<g><path style="opacity:0.027" fill="#afcff0" d="M 33.5,144.5 C 32.9202,146.749 31.5869,148.415 29.5,149.5C 30.0798,147.251 31.4131,145.585 33.5,144.5 Z"/></g>
<g><path style="opacity:0.345" fill="#96c3f0" d="M 223.5,148.5 C 224.906,148.973 225.573,149.973 225.5,151.5C 224.094,151.027 223.427,150.027 223.5,148.5 Z"/></g>
<g><path style="opacity:0.663" fill="#8ebced" d="M 290.5,148.5 C 290.598,150.553 289.931,152.22 288.5,153.5C 288.12,151.302 288.787,149.635 290.5,148.5 Z"/></g>
<g><path style="opacity:0.957" fill="#7dafeb" d="M 11.5,148.5 C 11.4077,150.848 10.4077,152.514 8.5,153.5C 8.74973,151.326 9.74973,149.659 11.5,148.5 Z"/></g>
<g><path style="opacity:0.047" fill="#b9d5ef" d="M 107.5,151.5 C 107.833,151.5 108.167,151.5 108.5,151.5C 108.409,153.698 109.075,154.031 110.5,152.5C 110.179,154.048 109.179,154.715 107.5,154.5C 107.5,153.5 107.5,152.5 107.5,151.5 Z"/></g>
<g><path style="opacity:0.957" fill="#98bde8" d="M 206.5,152.5 C 209.138,154.418 210.805,157.085 211.5,160.5C 209.347,158.206 207.68,155.54 206.5,152.5 Z"/></g>
<g><path style="opacity:0.78" fill="#87b7e9" d="M 176.5,150.5 C 174.761,153.243 172.427,155.243 169.5,156.5C 171.239,153.757 173.573,151.757 176.5,150.5 Z"/></g>
<g><path style="opacity:0.039" fill="#adceef" d="M 28.5,150.5 C 27.6597,152.853 26.3264,154.853 24.5,156.5C 24.8449,153.802 26.1782,151.802 28.5,150.5 Z"/></g>
<g><path style="opacity:0.58" fill="#77aee5" d="M 226.5,153.5 C 227.906,153.973 228.573,154.973 228.5,156.5C 227.094,156.027 226.427,155.027 226.5,153.5 Z"/></g>
<g><path style="opacity:0.612" fill="#8ab9ea" d="M 288.5,153.5 C 288.204,155.403 287.537,157.07 286.5,158.5C 286.12,156.302 286.787,154.635 288.5,153.5 Z"/></g>
<g><path style="opacity:0.075" fill="#b7d6f4" d="M 24.5,156.5 C 24.3404,158.153 23.6737,159.486 22.5,160.5C 22.2291,158.62 22.8958,157.287 24.5,156.5 Z"/></g>
<g><path style="opacity:0.478" fill="#87baed" d="M 228.5,156.5 C 229.906,156.973 230.573,157.973 230.5,159.5C 229.094,159.027 228.427,158.027 228.5,156.5 Z"/></g>
<g><path style="opacity:0.871" fill="#86b8ec" d="M 8.5,153.5 C 6.40271,159.349 4.06938,165.015 1.5,170.5C 1.95258,166.307 3.11924,162.307 5,158.5C 5.69724,156.416 6.8639,154.749 8.5,153.5 Z"/></g>
<g><path style="opacity:0.898" fill="#7eb4ec" d="M 169.5,156.5 C 168.415,158.587 166.749,159.92 164.5,160.5C 165.585,158.413 167.251,157.08 169.5,156.5 Z"/></g>
<g><path style="opacity:0.898" fill="#8cb8ec" d="M 255.5,152.5 C 255.163,156.836 253.496,160.503 250.5,163.5C 251.382,159.407 253.049,155.74 255.5,152.5 Z"/></g>
<g><path style="opacity:0.537" fill="#94c1ef" d="M 286.5,158.5 C 286.204,160.403 285.537,162.07 284.5,163.5C 284.12,161.302 284.787,159.635 286.5,158.5 Z"/></g>
<g><path style="opacity:0.549" fill="#92c1ef" d="M 164.5,160.5 C 163.738,162.262 162.404,163.262 160.5,163.5C 161.262,161.738 162.596,160.738 164.5,160.5 Z"/></g>
<g><path style="opacity:0.259" fill="#a9cef2" d="M 22.5,160.5 C 22.2041,162.403 21.5375,164.07 20.5,165.5C 20.1201,163.302 20.7868,161.635 22.5,160.5 Z"/></g>
<g><path style="opacity:0.018" fill="#c5def6" d="M 414.5,164.5 C 407.804,164.391 401.137,164.724 394.5,165.5C 398.223,164.003 402.223,163.337 406.5,163.5C 409.355,163.503 412.022,163.836 414.5,164.5 Z"/></g>
<g><path style="opacity:0.369" fill="#9cc6f0" d="M 160.5,163.5 C 159.415,165.587 157.749,166.92 155.5,167.5C 156.585,165.413 158.251,164.08 160.5,163.5 Z"/></g>
<g><path style="opacity:0.937" fill="#83b3eb" d="M 361.5,166.5 C 354.174,165.21 346.841,165.21 339.5,166.5C 346.842,162.597 354.175,162.597 361.5,166.5 Z"/></g>
<g><path style="opacity:0.992" fill="#317bdd" d="M 414.5,164.5 C 414.833,164.5 415.167,164.5 415.5,164.5C 418.215,166.072 421.215,167.072 424.5,167.5C 426.716,168.203 428.549,169.536 430,171.5C 430.808,175.027 430.641,178.36 429.5,181.5C 428.167,182.167 427.167,183.167 426.5,184.5C 423.132,187.046 419.799,187.046 416.5,184.5C 415.5,182.833 414.167,181.5 412.5,180.5C 409.236,179.676 405.902,179.342 402.5,179.5C 401.504,179.414 400.671,179.748 400,180.5C 399.257,182.441 399.424,184.274 400.5,186C 409.234,188.312 417.901,190.812 426.5,193.5C 426.973,194.906 427.973,195.573 429.5,195.5C 430.845,197.697 432.011,200.03 433,202.5C 433.499,206.821 433.666,211.154 433.5,215.5C 431.896,216.287 431.229,217.62 431.5,219.5C 430.094,219.973 429.427,220.973 429.5,222.5C 429.5,223.167 429.167,223.5 428.5,223.5C 426.326,223.75 424.659,224.75 423.5,226.5C 412.96,229.68 402.294,230.18 391.5,228C 388.461,226.895 385.461,225.728 382.5,224.5C 380.857,220.7 380.19,216.7 380.5,212.5C 381.833,211.833 382.833,210.833 383.5,209.5C 390.265,207.045 395.599,208.878 399.5,215C 402.833,215.667 406.167,215.667 409.5,215C 410.416,214.722 411.082,214.222 411.5,213.5C 413.377,212.341 413.877,210.674 413,208.5C 411.951,206.893 410.451,206.227 408.5,206.5C 407.319,204.933 405.653,204.099 403.5,204C 400.854,203.503 398.187,203.336 395.5,203.5C 393.898,201.926 391.898,201.259 389.5,201.5C 387.847,201.34 386.514,200.674 385.5,199.5C 383.471,197.142 381.471,194.808 379.5,192.5C 377.76,183.451 380.093,175.784 386.5,169.5C 388.027,169.573 389.027,168.906 389.5,167.5C 391.698,167.88 393.365,167.213 394.5,165.5C 401.137,164.724 407.804,164.391 414.5,164.5 Z"/></g>
<g><path style="opacity:0.004" fill="#b4d2ef" d="M 415.5,164.5 C 418.916,164.528 421.916,165.528 424.5,167.5C 421.215,167.072 418.215,166.072 415.5,164.5 Z"/></g>
<g><path style="opacity:0.443" fill="#9bc5f0" d="M 284.5,163.5 C 284.204,165.403 283.537,167.07 282.5,168.5C 282.12,166.302 282.787,164.635 284.5,163.5 Z"/></g>
<g><path style="opacity:0.992" fill="#317add" d="M 328.5,168.5 C 329.038,170.117 329.371,171.784 329.5,173.5C 332.292,173.378 334.292,172.044 335.5,169.5C 337.404,169.262 338.738,168.262 339.5,166.5C 346.841,165.21 354.174,165.21 361.5,166.5C 362.492,166.328 363.158,166.662 363.5,167.5C 364.833,169.5 366.5,171.167 368.5,172.5C 368.427,174.027 369.094,175.027 370.5,175.5C 370.5,175.833 370.5,176.167 370.5,176.5C 371.437,192.138 371.771,207.805 371.5,223.5C 371.5,224.167 371.167,224.5 370.5,224.5C 369.5,224.833 368.833,225.5 368.5,226.5C 366.834,228.828 364.501,229.828 361.5,229.5C 358.499,229.828 356.166,228.828 354.5,226.5C 353.406,224.641 352.573,222.641 352,220.5C 351.83,209.326 351.33,198.326 350.5,187.5C 350.262,185.596 349.262,184.262 347.5,183.5C 346.508,183.672 345.842,183.338 345.5,182.5C 344.848,181.275 343.681,180.608 342,180.5C 339.992,180.307 338.492,180.974 337.5,182.5C 336.833,183.833 335.833,184.833 334.5,185.5C 333.034,186.347 332.2,187.68 332,189.5C 331.5,200.495 331.333,211.495 331.5,222.5C 330.094,222.973 329.427,223.973 329.5,225.5C 329.5,226.167 329.167,226.5 328.5,226.5C 324.985,227.919 321.319,228.586 317.5,228.5C 316.508,228.672 315.842,228.338 315.5,227.5C 313.109,225.385 311.776,222.719 311.5,219.5C 311.333,203.163 311.5,186.83 312,170.5C 313.039,169.756 313.539,168.756 313.5,167.5C 315.027,167.573 316.027,166.906 316.5,165.5C 318.966,164.366 321.633,164.199 324.5,165C 326.324,165.66 327.657,166.827 328.5,168.5 Z"/></g>
<g><path style="opacity:0.82" fill="#7fb6ec" d="M 316.5,165.5 C 316.027,166.906 315.027,167.573 313.5,167.5C 313.973,166.094 314.973,165.427 316.5,165.5 Z"/></g>
<g><path style="opacity:0.957" fill="#87b4eb" d="M 394.5,165.5 C 393.365,167.213 391.698,167.88 389.5,167.5C 390.78,166.069 392.447,165.402 394.5,165.5 Z"/></g>
<g><path style="opacity:0.192" fill="#a4cbf1" d="M 213.5,164.5 C 214.931,165.78 215.598,167.447 215.5,169.5C 214.069,168.22 213.402,166.553 213.5,164.5 Z"/></g>
<g><path style="opacity:0.82" fill="#7cb3eb" d="M 339.5,166.5 C 338.738,168.262 337.404,169.262 335.5,169.5C 336.262,167.738 337.596,166.738 339.5,166.5 Z"/></g>
<g><path style="opacity:0.004" fill="#afd2f3" d="M 363.5,167.5 C 366.167,168.167 367.833,169.833 368.5,172.5C 366.5,171.167 364.833,169.5 363.5,167.5 Z"/></g>
<g><path style="opacity:0.376" fill="#a2caf1" d="M 155.5,167.5 C 154.738,169.262 153.404,170.262 151.5,170.5C 152.262,168.738 153.596,167.738 155.5,167.5 Z"/></g>
<g><path style="opacity:0.914" fill="#88b7ed" d="M 250.5,163.5 C 250.834,166.491 249.834,168.824 247.5,170.5C 247.707,167.759 248.707,165.426 250.5,163.5 Z"/></g>
<g><path style="opacity:0.588" fill="#91bfea" d="M 389.5,167.5 C 389.027,168.906 388.027,169.573 386.5,169.5C 386.973,168.094 387.973,167.427 389.5,167.5 Z"/></g>
<g><path style="opacity:0.4" fill="#98c0e9" d="M 151.5,170.5 C 150.738,172.262 149.404,173.262 147.5,173.5C 148.262,171.738 149.596,170.738 151.5,170.5 Z"/></g>
<g><path style="opacity:0.376" fill="#97c3ee" d="M 328.5,168.5 C 329.966,169.347 330.8,170.68 331,172.5C 332.129,170.859 333.629,169.859 335.5,169.5C 334.292,172.044 332.292,173.378 329.5,173.5C 329.371,171.784 329.038,170.117 328.5,168.5 Z"/></g>
<g><path style="opacity:0.263" fill="#a3c9f1" d="M 215.5,169.5 C 217.472,172.084 218.472,175.084 218.5,178.5C 216.928,175.785 215.928,172.785 215.5,169.5 Z"/></g>
<g><path style="opacity:0.69" fill="#88b9ed" d="M 281.5,170.5 C 281.204,172.403 280.537,174.07 279.5,175.5C 279.12,173.302 279.787,171.635 281.5,170.5 Z"/></g>
<g><path style="opacity:0.914" fill="#96bfef" d="M 247.5,170.5 C 247.834,173.491 246.834,175.824 244.5,177.5C 244.935,174.843 245.935,172.509 247.5,170.5 Z"/></g>
<g><path style="opacity:0.549" fill="#9bc5f0" d="M 147.5,173.5 C 147.027,174.906 146.027,175.573 144.5,175.5C 144.973,174.094 145.973,173.427 147.5,173.5 Z"/></g>
<g><path style="opacity:0.094" fill="#aacff2" d="M 368.5,172.5 C 369.906,172.973 370.573,173.973 370.5,175.5C 369.094,175.027 368.427,174.027 368.5,172.5 Z"/></g>
<g><path style="opacity:0.404" fill="#9ec7f0" d="M 144.5,175.5 C 143.738,177.262 142.404,178.262 140.5,178.5C 141.262,176.738 142.596,175.738 144.5,175.5 Z"/></g>
<g><path style="opacity:0.239" fill="#87bbed" d="M 19.5,167.5 C 18.1851,172.744 17.5185,178.077 17.5,183.5C 16.3547,179.689 16.1881,175.689 17,171.5C 17.2004,169.68 18.0337,168.347 19.5,167.5 Z"/></g>
<g><path style="opacity:0.8" fill="#84b6ed" d="M 279.5,175.5 C 279.598,177.553 278.931,179.22 277.5,180.5C 277.12,178.302 277.787,176.635 279.5,175.5 Z"/></g>
<g><path style="opacity:0.576" fill="#98c4ef" d="M 140.5,178.5 C 140.027,179.906 139.027,180.573 137.5,180.5C 137.973,179.094 138.973,178.427 140.5,178.5 Z"/></g>
<g><path style="opacity:0.82" fill="#9cc5f0" d="M 244.5,177.5 C 244.88,179.698 244.213,181.365 242.5,182.5C 242.796,180.597 243.463,178.93 244.5,177.5 Z"/></g>
<g><path style="opacity:0.886" fill="#61a1e7" d="M 345.5,182.5 C 342.863,181.37 340.197,181.37 337.5,182.5C 338.492,180.974 339.992,180.307 342,180.5C 343.681,180.608 344.848,181.275 345.5,182.5 Z"/></g>
<g><path style="opacity:0.365" fill="#93c0ee" d="M 386.5,169.5 C 380.093,175.784 377.76,183.451 379.5,192.5C 377.102,186.129 377.602,179.795 381,173.5C 382.451,171.536 384.284,170.203 386.5,169.5 Z"/></g>
<g><path style="opacity:0.412" fill="#a1c8ef" d="M 137.5,180.5 C 136.198,182.822 134.198,184.155 131.5,184.5C 133.147,182.674 135.147,181.34 137.5,180.5 Z"/></g>
<g><path style="opacity:0.004" fill="#b8d5f1" d="M 412.5,180.5 C 414.167,181.5 415.5,182.833 416.5,184.5C 414.167,184.167 412.833,182.833 412.5,180.5 Z"/></g>
<g><path style="opacity:0.357" fill="#8fbae4" d="M 1.5,170.5 C 0.911488,177.485 0.578155,184.485 0.5,191.5C 0.166667,191.5 -0.166667,191.5 -0.5,191.5C -0.5,186.167 -0.5,180.833 -0.5,175.5C 0.166667,173.833 0.833333,172.167 1.5,170.5 Z"/></g>
<g><path style="opacity:0.973" fill="#5898e2" d="M 237.5,173.5 C 239.267,175.792 240.267,178.458 240.5,181.5C 240.427,183.027 241.094,184.027 242.5,184.5C 242.225,186.842 241.392,186.842 240,184.5C 239.148,180.811 238.315,177.144 237.5,173.5 Z"/></g>
<g><path style="opacity:0.035" fill="#bdd6ef" d="M 240.5,181.5 C 241.167,181.833 241.833,182.167 242.5,182.5C 242.5,183.167 242.5,183.833 242.5,184.5C 241.094,184.027 240.427,183.027 240.5,181.5 Z"/></g>
<g><path style="opacity:0.012" fill="#b5d2ed" d="M 429.5,181.5 C 429.5,183.5 428.5,184.5 426.5,184.5C 427.167,183.167 428.167,182.167 429.5,181.5 Z"/></g>
<g><path style="opacity:0.016" fill="#afcff0" d="M 219.5,181.5 C 221.579,186.169 222.579,191.169 222.5,196.5C 221.058,191.709 220.058,186.709 219.5,181.5 Z"/></g>
<g><path style="opacity:0.51" fill="#99c3ec" d="M 131.5,184.5 C 131.027,185.906 130.027,186.573 128.5,186.5C 128.973,185.094 129.973,184.427 131.5,184.5 Z"/></g>
<g><path style="opacity:0.855" fill="#4a9ae4" d="M 313.5,167.5 C 313.539,168.756 313.039,169.756 312,170.5C 311.5,186.83 311.333,203.163 311.5,219.5C 310.504,204.342 310.17,189.009 310.5,173.5C 310.025,170.687 311.025,168.687 313.5,167.5 Z"/></g>
<g><path style="opacity:0.376" fill="#abcff2" d="M 126.5,187.5 C 126.027,188.906 125.027,189.573 123.5,189.5C 123.973,188.094 124.973,187.427 126.5,187.5 Z"/></g>
<g><path style="opacity:0.082" fill="#a3caef" d="M 347.5,183.5 C 349.262,184.262 350.262,185.596 350.5,187.5C 350.5,188.833 350.5,190.167 350.5,191.5C 349.751,188.799 348.751,186.132 347.5,183.5 Z"/></g>
<g><path style="opacity:0.698" fill="#96c2ef" d="M 18.5,187.5 C 19.7362,189.649 20.7362,191.982 21.5,194.5C 19.179,192.91 18.179,190.577 18.5,187.5 Z"/></g>
<g><path style="opacity:0.09" fill="#b0d1f1" d="M 402.5,179.5 C 400.576,181.09 400.243,182.924 401.5,185C 407.75,186.918 414.083,188.584 420.5,190C 422.879,190.716 424.879,191.883 426.5,193.5C 417.901,190.812 409.234,188.312 400.5,186C 399.424,184.274 399.257,182.441 400,180.5C 400.671,179.748 401.504,179.414 402.5,179.5 Z"/></g>
<g><path style="opacity:0.412" fill="#a0c8f0" d="M 274.5,189.5 C 274.204,191.403 273.537,193.07 272.5,194.5C 272.12,192.302 272.787,190.635 274.5,189.5 Z"/></g>
<g><path style="opacity:0.086" fill="#b2d2f1" d="M 123.5,189.5 C 120.839,192.502 117.505,194.502 113.5,195.5C 116.494,193 119.827,191 123.5,189.5 Z"/></g>
<g><path style="opacity:0.447" fill="#7ab5eb" d="M 334.5,185.5 C 332.992,197.909 331.992,210.242 331.5,222.5C 331.333,211.495 331.5,200.495 332,189.5C 332.2,187.68 333.034,186.347 334.5,185.5 Z"/></g>
<g><path style="opacity:0.184" fill="#a3cbf1" d="M 379.5,192.5 C 381.471,194.808 383.471,197.142 385.5,199.5C 382.092,198.422 380.092,196.089 379.5,192.5 Z"/></g>
<g><path style="opacity:0.059" fill="#abcff2" d="M 426.5,193.5 C 428.027,193.427 429.027,194.094 429.5,195.5C 427.973,195.573 426.973,194.906 426.5,193.5 Z"/></g>
<g><path style="opacity:0.98" fill="#81afeb" d="M 113.5,195.5 C 112.817,197.176 111.483,197.843 109.5,197.5C 110.514,196.326 111.847,195.66 113.5,195.5 Z"/></g>
<g><path style="opacity:0.957" fill="#7caeea" d="M 21.5,194.5 C 22.6737,195.514 23.3404,196.847 23.5,198.5C 21.8235,197.817 21.1568,196.483 21.5,194.5 Z"/></g>
<g><path style="opacity:0.063" fill="#add2f2" d="M 310.5,173.5 C 310.17,189.009 310.504,204.342 311.5,219.5C 311.776,222.719 313.109,225.385 315.5,227.5C 312.265,226.405 310.432,224.072 310,220.5C 309.172,204.661 309.339,188.995 310.5,173.5 Z"/></g>
<g><path style="opacity:0.925" fill="#87b6ec" d="M 109.5,197.5 C 106.413,201.044 102.413,203.044 97.5,203.5C 101.182,200.992 105.182,198.992 109.5,197.5 Z"/></g>
<g><path style="opacity:0.192" fill="#a0c8f1" d="M 1.5,196.5 C 4.06944,200.635 6.40277,204.968 8.5,209.5C 4.8793,205.929 2.54596,201.596 1.5,196.5 Z"/></g>
<g><path style="opacity:0.753" fill="#67a9e8" d="M 370.5,176.5 C 371.268,177.263 371.768,178.263 372,179.5C 372.208,191.193 372.708,202.86 373.5,214.5C 373.009,217.674 372.343,220.674 371.5,223.5C 371.771,207.805 371.437,192.138 370.5,176.5 Z"/></g>
<g><path style="opacity:0.216" fill="#a2c7ee" d="M 25.5,200.5 C 27.754,201.124 29.4206,202.457 30.5,204.5C 28.2054,203.864 26.5387,202.531 25.5,200.5 Z"/></g>
<g><path style="opacity:0.8" fill="#79b1eb" d="M 389.5,201.5 C 391.898,201.259 393.898,201.926 395.5,203.5C 393.102,203.741 391.102,203.074 389.5,201.5 Z"/></g>
<g><path style="opacity:0.973" fill="#63a1e7" d="M 395.5,203.5 C 398.187,203.336 400.854,203.503 403.5,204C 405.653,204.099 407.319,204.933 408.5,206.5C 403.908,206.118 399.575,205.118 395.5,203.5 Z"/></g>
<g><path style="opacity:0.835" fill="#9ac3f0" d="M 97.5,203.5 C 96.3646,205.213 94.698,205.88 92.5,205.5C 93.7804,204.069 95.4471,203.402 97.5,203.5 Z"/></g>
<g><path style="opacity:0.039" fill="#b8d7f4" d="M 30.5,204.5 C 32.0269,204.427 33.0269,205.094 33.5,206.5C 31.9731,206.573 30.9731,205.906 30.5,204.5 Z"/></g>
<g><path style="opacity:0.004" fill="#bbd8f5" d="M 128.5,207.5 C 128.027,208.906 127.027,209.573 125.5,209.5C 125.973,208.094 126.973,207.427 128.5,207.5 Z"/></g>
<g><path style="opacity:0.118" fill="#a9ccee" d="M 411.5,213.5 C 411.082,214.222 410.416,214.722 409.5,215C 406.167,215.667 402.833,215.667 399.5,215C 395.599,208.878 390.265,207.045 383.5,209.5C 383.611,208.883 383.944,208.383 384.5,208C 387.5,207.333 390.5,207.333 393.5,208C 396.167,210 398.833,212 401.5,214C 404.868,214.543 408.201,214.376 411.5,213.5 Z"/></g>
<g><path style="opacity:0.62" fill="#85b9ec" d="M 429.5,195.5 C 431.527,196.861 433.194,198.527 434.5,200.5C 434.5,205.5 434.5,210.5 434.5,215.5C 434.167,215.5 433.833,215.5 433.5,215.5C 433.666,211.154 433.499,206.821 433,202.5C 432.011,200.03 430.845,197.697 429.5,195.5 Z"/></g>
<g><path style="opacity:0.443" fill="#9cc6ef" d="M 92.5,205.5 C 90.6146,207.311 88.2813,208.478 85.5,209C 81.2464,210.314 76.913,211.147 72.5,211.5C 79.0792,209.518 85.7459,207.518 92.5,205.5 Z"/></g>
<g><path style="opacity:0.118" fill="#9cc6f0" d="M 408.5,206.5 C 410.451,206.227 411.951,206.893 413,208.5C 413.877,210.674 413.377,212.341 411.5,213.5C 412.973,210.111 411.973,207.778 408.5,206.5 Z"/></g>
<g><path style="opacity:0.012" fill="#a8ccef" d="M 8.5,209.5 C 11.1667,211.5 13.5,213.833 15.5,216.5C 12.1667,215.167 9.83333,212.833 8.5,209.5 Z"/></g>
<g><path style="opacity:0.051" fill="#c1ddf6" d="M 383.5,209.5 C 382.833,210.833 381.833,211.833 380.5,212.5C 380.5,210.5 381.5,209.5 383.5,209.5 Z"/></g>
<g><path style="opacity:0.773" fill="#92c1ee" d="M 33.5,206.5 C 45.9947,211.971 58.9947,213.637 72.5,211.5C 65.4061,213.403 58.0728,213.903 50.5,213C 44.2182,212.079 38.5515,209.912 33.5,206.5 Z"/></g>
<g><path style="opacity:0.02" fill="#b6cee6" d="M 120.5,212.5 C 119.713,214.104 118.38,214.771 116.5,214.5C 117.514,213.326 118.847,212.66 120.5,212.5 Z"/></g>
<g><path style="opacity:0.008" fill="#b6d5f4" d="M 114.5,215.5 C 113.486,216.674 112.153,217.34 110.5,217.5C 111.287,215.896 112.62,215.229 114.5,215.5 Z"/></g>
<g><path style="opacity:0.473" fill="#8dbfed" d="M 380.5,212.5 C 380.19,216.7 380.857,220.7 382.5,224.5C 381.542,224.047 380.708,223.381 380,222.5C 379.192,218.973 379.359,215.64 380.5,212.5 Z"/></g>
<g><path style="opacity:0.369" fill="#98c4ef" d="M 433.5,215.5 C 433.771,217.38 433.104,218.713 431.5,219.5C 431.229,217.62 431.896,216.287 433.5,215.5 Z"/></g>
<g><path style="opacity:0.945" fill="#7baeea" d="M 15.5,216.5 C 19.5977,216.943 22.5977,218.943 24.5,222.5C 20.9754,221.241 17.9754,219.241 15.5,216.5 Z"/></g>
<g><path style="opacity:0.322" fill="#94c1ee" d="M 222.5,196.5 C 224.051,200.9 224.884,205.566 225,210.5C 225.5,217.492 225.666,224.492 225.5,231.5C 224.357,219.993 223.357,208.326 222.5,196.5 Z"/></g>
<g><path style="opacity:0.412" fill="#94c1ef" d="M 264.5,218.5 C 264.34,220.153 263.674,221.486 262.5,222.5C 262.229,220.62 262.896,219.287 264.5,218.5 Z"/></g>
<g><path style="opacity:0.008" fill="#b8d7f5" d="M 431.5,219.5 C 431.573,221.027 430.906,222.027 429.5,222.5C 429.427,220.973 430.094,219.973 431.5,219.5 Z"/></g>
<g><path style="opacity:0.055" fill="#a2caf1" d="M 103.5,220.5 C 102.07,221.537 100.403,222.204 98.5,222.5C 99.6354,220.787 101.302,220.12 103.5,220.5 Z"/></g>
<g><path style="opacity:0.835" fill="#6eade9" d="M 350.5,187.5 C 351.33,198.326 351.83,209.326 352,220.5C 352.573,222.641 353.406,224.641 354.5,226.5C 352.926,226.063 351.759,225.063 351,223.5C 350.5,212.839 350.333,202.172 350.5,191.5C 350.5,190.167 350.5,188.833 350.5,187.5 Z"/></g>
<g><path style="opacity:0.8" fill="#91bfed" d="M 29.5,224.5 C 33.1621,224.723 36.4954,225.723 39.5,227.5C 35.8379,227.277 32.5046,226.277 29.5,224.5 Z"/></g>
<g><path style="opacity:0.114" fill="#96c3ed" d="M 331.5,222.5 C 331.573,224.027 330.906,225.027 329.5,225.5C 329.427,223.973 330.094,222.973 331.5,222.5 Z"/></g>
<g><path style="opacity:0.208" fill="#9cc7f0" d="M 428.5,223.5 C 427.341,225.25 425.674,226.25 423.5,226.5C 424.659,224.75 426.326,223.75 428.5,223.5 Z"/></g>
<g><path style="opacity:0.51" fill="#8cbcec" d="M 92.5,224.5 C 90.0948,225.768 87.4282,226.435 84.5,226.5C 86.8383,224.96 89.5049,224.294 92.5,224.5 Z"/></g>
<g><path style="opacity:0.008" fill="#aed2f3" d="M 370.5,224.5 C 370.5,225.833 369.833,226.5 368.5,226.5C 368.833,225.5 369.5,224.833 370.5,224.5 Z"/></g>
<g><path style="opacity:0.659" fill="#85b7ec" d="M 39.5,227.5 C 53.1628,228.743 66.8295,228.743 80.5,227.5C 66.8368,231.445 53.1702,231.445 39.5,227.5 Z"/></g>
<g><path style="opacity:0.471" fill="#90bfee" d="M 328.5,226.5 C 327.942,227.79 326.942,228.623 325.5,229C 322.633,229.801 319.966,229.634 317.5,228.5C 321.319,228.586 324.985,227.919 328.5,226.5 Z"/></g>
<g><path style="opacity:0.871" fill="#83b6ec" d="M 258.5,228.5 C 258.082,229.222 257.416,229.722 256.5,230C 249.347,231.097 242.347,232.263 235.5,233.5C 232.167,233.5 228.833,233.5 225.5,233.5C 225.5,233.167 225.5,232.833 225.5,232.5C 236.49,231.085 247.49,229.751 258.5,228.5 Z"/></g>
<g><path style="opacity:0.592" fill="#79b1ea" d="M 382.5,224.5 C 385.461,225.728 388.461,226.895 391.5,228C 402.294,230.18 412.96,229.68 423.5,226.5C 422.4,227.558 421.066,228.392 419.5,229C 407.639,231.446 395.972,230.779 384.5,227C 383.619,226.292 382.953,225.458 382.5,224.5 Z"/></g>
</svg>
